# xmcd
#
# Track frame offsets:
#	150
#	30548
#	63890
#	88360
#	112808
#	134613
#	154470
#	173826
#	190297
#	202875
#	225421
#	250871
#	268790
#	281869
#	296857
#	318996
#
# Disc length: 4483 seconds
#
# Revision: 0
# Processed by: cddbd v1.5.2PL0 Copyright (c) Steve Scherf et al.
# Submitted via: EasyCDDAExtractor 16.0.8.2
#
DISCID=ee118110
DTITLE=Άνευ ερμηνευτού - Jazz collection 01-Dave Brubeck
DYEAR=2010
DGENRE=Ξένη jazz
TTITLE0=Blue rondo a la Turk 
TTITLE1=Strange meadow lark
TTITLE2=Take five
TTITLE3=Three to get ready
TTITLE4=Kathy's waltz
TTITLE5=Everybody's jumpin'
TTITLE6=Pick up sticks
TTITLE7=Swing bells
TTITLE8=Walking line
TTITLE9=In your own sweet way
TTITLE10=Two part contention
TTITLE11=Weep no more
TTITLE12=The duke
TTITLE13=When i was young
TTITLE14=One moment worth tears
TTITLE15=The waltz
EXTD=
EXTT0=
EXTT1=
EXTT2=
EXTT3=
EXTT4=
EXTT5=
EXTT6=
EXTT7=
EXTT8=
EXTT9=
EXTT10=
EXTT11=
EXTT12=
EXTT13=
EXTT14=
EXTT15=
PLAYORDER=
